<?xml version="1.0" standalone="no"?>
<!DOCTYPE svg PUBLIC "-//W3C//DTD SVG 20010904//EN"
 "http://www.w3.org/TR/2001/REC-SVG-20010904/DTD/svg10.dtd">
<svg version="1.0" xmlns="http://www.w3.org/2000/svg"
 width="600.000000pt" height="600.000000pt" viewBox="0 0 600.000000 600.000000"
 preserveAspectRatio="xMidYMid meet">
<metadata>
Created by potrace 1.11, written by Peter Selinger 2001-2013
</metadata>
<g transform="translate(0.000000,600.000000) scale(0.100000,-0.100000)"
fill="#000000" stroke="none">
<path d="M2809 5896 c-2 -2 -41 -7 -85 -10 -145 -11 -319 -44 -534 -100 -39
-11 -204 -68 -275 -96 -188 -74 -478 -235 -625 -347 -405 -308 -692 -652 -902
-1083 -66 -136 -158 -379 -183 -485 -3 -11 -14 -56 -25 -100 -11 -44 -22 -93
-25 -110 -3 -16 -10 -55 -15 -85 -27 -153 -35 -259 -35 -480 0 -245 8 -339 46
-540 151 -799 627 -1489 1329 -1930 263 -165 658 -321 955 -376 209 -38 327
-49 565 -49 237 0 335 8 510 41 47 9 96 18 110 20 230 42 610 191 845 331 780
464 1300 1250 1410 2128 4 28 9 61 11 75 10 50 12 458 3 554 -12 135 -45 332
-75 451 -67 267 -188 555 -330 791 -47 79 -190 284 -222 320 -9 11 -39 46 -67
79 -129 153 -340 344 -521 472 -386 272 -857 457 -1300 509 -27 3 -62 8 -79
11 -35 5 -481 14 -486 9z"/>
</g>
</svg>
